<?xml version="1.0" encoding="UTF-8" standalone="no"?>
<!-- Created with Inkscape (http://www.inkscape.org/) -->

<svg
   width="1000"
   height="1000"
   viewBox="0 0 264.58332 264.58334"
   version="1.1"
   id="svg1"
   inkscape:version="1.4.2 (f4327f4, 2025-05-13)"
   sodipodi:docname="food-menu-snack.svg"
   xml:space="preserve"
   xmlns:inkscape="http://www.inkscape.org/namespaces/inkscape"
   xmlns:sodipodi="http://sodipodi.sourceforge.net/DTD/sodipodi-0.dtd"
   xmlns="http://www.w3.org/2000/svg"
   xmlns:svg="http://www.w3.org/2000/svg"><sodipodi:namedview
     id="namedview1"
     pagecolor="#ffffff"
     bordercolor="#000000"
     borderopacity="0.25"
     inkscape:showpageshadow="2"
     inkscape:pageopacity="0.0"
     inkscape:pagecheckerboard="0"
     inkscape:deskcolor="#d1d1d1"
     inkscape:document-units="px"
     showgrid="true"
     inkscape:zoom="0.8"
     inkscape:cx="448.75"
     inkscape:cy="495.625"
     inkscape:window-width="1718"
     inkscape:window-height="1344"
     inkscape:window-x="500"
     inkscape:window-y="0"
     inkscape:window-maximized="0"
     inkscape:current-layer="layer1"><inkscape:grid
       id="grid1"
       units="px"
       originx="0"
       originy="0"
       spacingx="13.229166"
       spacingy="13.229166"
       empcolor="#0099e5"
       empopacity="0.30196078"
       color="#0099e5"
       opacity="0.14901961"
       empspacing="5"
       enabled="true"
       visible="true" /></sodipodi:namedview><defs
     id="defs1"><inkscape:path-effect
       effect="bend_path"
       id="path-effect24"
       is_visible="true"
       lpeversion="1"
       bendpath="m 4.586515,-10.52982 c 0,-47.833625 63.778171,-112.57012 127.556345,-112.57012 63.77817,-1e-5 127.55634,64.736495 127.55634,112.57012"
       prop_scale="1"
       scale_y_rel="false"
       vertical="false"
       hide_knot="false"
       bendpath-nodetypes="csc" /><inkscape:path-effect
       effect="envelope"
       id="path-effect7"
       is_visible="true"
       lpeversion="1"
       yy="true"
       xx="true"
       bendpath1="m 117.06414,44.979162 h 25.16337"
       bendpath2="M 142.22751,44.979162 V 71.437494"
       bendpath3="m 117.06414,71.437494 h 25.16337"
       bendpath4="M 117.06414,44.979162 V 71.437494" /><rect
       x="50.000001"
       y="669.99996"
       width="900.00002"
       height="109.99999"
       id="rect4" /></defs><g
     inkscape:label="COOKIE"
     inkscape:groupmode="layer"
     id="layer1"
     style="display:inline"><path
       id="path4"
       style="fill:#000000;stroke:#000000;stroke-width:5.29167;stroke-linecap:round;stroke-linejoin:round;stroke-dasharray:none;fill-opacity:1"
       d="M 132.29166 26.458333 A 105.83333 105.83332 0 0 0 26.458333 132.29166 A 105.83333 105.83332 0 0 0 132.29166 238.125 A 105.83333 105.83332 0 0 0 237.97514 134.57473 A 29.181984 29.181982 0 0 1 224.89583 137.73888 A 29.181984 29.181982 0 0 1 195.71363 108.5572 A 29.181984 29.181982 0 0 1 196.05521 104.28821 A 39.6875 39.687496 0 0 1 185.20833 105.83333 A 39.6875 39.687496 0 0 1 145.52083 66.145832 A 39.6875 39.687496 0 0 1 146.07687 59.876965 A 33.072918 33.072914 0 0 1 132.29166 33.072916 A 33.072918 33.072914 0 0 1 133.02237 26.506392 A 105.83333 105.83332 0 0 0 132.29166 26.458333 z M 223.00912 77.992138 A 39.6875 39.687496 0 0 1 222.40348 79.538297 A 29.181984 29.181982 0 0 1 223.75637 79.44993 A 105.83333 105.83332 0 0 0 223.00912 77.992138 z M 79.374999 86.934744 A 18.898804 18.8988 0 0 1 98.273587 105.83333 A 18.898804 18.8988 0 0 1 79.374999 124.73192 A 18.898804 18.8988 0 0 1 60.476411 105.83333 A 18.898804 18.8988 0 0 1 79.374999 86.934744 z M 145.52083 119.0625 A 13.229166 13.229165 0 0 1 158.75 132.29166 A 13.229166 13.229165 0 0 1 145.52083 145.52083 A 13.229166 13.229165 0 0 1 132.29166 132.29166 A 13.229166 13.229165 0 0 1 145.52083 119.0625 z M 99.218749 158.75 A 6.614583 6.6145825 0 0 1 105.83333 165.36458 A 6.614583 6.6145825 0 0 1 99.218749 171.97916 A 6.614583 6.6145825 0 0 1 92.604165 165.36458 A 6.614583 6.6145825 0 0 1 99.218749 158.75 z M 150.8125 172.86128 A 17.638889 17.638887 0 0 1 168.45121 190.5 A 17.638889 17.638887 0 0 1 150.8125 208.13871 A 17.638889 17.638887 0 0 1 133.17378 190.5 A 17.638889 17.638887 0 0 1 150.8125 172.86128 z " /></g></svg>
